<svg width="34" height="35" viewBox="0 0 34 35" fill="none" xmlns="http://www.w3.org/2000/svg">
<mask id="mask0" mask-type="alpha" maskUnits="userSpaceOnUse" x="0" y="0" width="34" height="35">
<path d="M33.109 14.0227H17.1388V20.6445H26.3314C25.4745 24.8513 21.8909 27.2663 17.1388 27.2663C11.5297 27.2663 7.01128 22.7479 7.01128 17.1388C7.01128 11.5298 11.5297 7.01128 17.1388 7.01128C19.5537 7.01128 21.7351 7.86818 23.4491 9.27047L28.4349 4.28466C25.3966 1.636 21.5014 0 17.1388 0C7.63461 0 0 7.63461 0 17.1388C0 26.643 7.63461 34.2776 17.1388 34.2776C25.7083 34.2776 33.4985 28.0453 33.4985 17.1388C33.4985 16.126 33.3427 15.0354 33.109 14.0227Z" fill="black"/>
</mask>
<g mask="url(#mask0)">
<path d="M-2.04468 27.1887V6.93361L11.199 17.0612L-2.04468 27.1887Z" fill="#FBBC05"/>
<path d="M-2.04468 6.9336L11.199 17.0612L16.6523 12.309L35.3491 9.27074V-1.63578H-2.04468V6.9336Z" fill="#EA4335"/>
<path d="M-2.04468 27.1887L21.3265 9.27074L27.4809 10.0498L35.3491 -1.63578V35.758H-2.04468V27.1887Z" fill="#34A853"/>
<path d="M35.3492 35.758L11.1991 17.0612L8.08289 14.7241L35.3492 6.93361V35.758Z" fill="#4285F4"/>
</g>
</svg>
