<svg width="526" height="526" viewBox="0 0 526 526" fill="none" xmlns="http://www.w3.org/2000/svg">
<mask id="mask0" mask-type="alpha" maskUnits="userSpaceOnUse" x="0" y="0" width="526" height="526">
<rect width="526" height="526" fill="#C4C4C4"/>
</mask>
<g mask="url(#mask0)">
<rect x="33" y="152" width="308.913" height="175" rx="18" fill="#044956"/>
<path d="M33 298.087H327.457C335.441 298.087 341.913 304.559 341.913 312.543V312.543C341.913 320.528 335.441 327 327.457 327H47C39.268 327 33 320.732 33 313V298.087Z" fill="white"/>
<path d="M55.8262 307.978V317.109L64.1957 312.543L55.8262 307.978Z" fill="#044956"/>
<rect x="71.0435" y="311.022" width="252.609" height="3.80435" rx="1.90217" fill="#D6D6D6"/>
<rect x="71.0435" y="311.022" width="47.1739" height="3.80435" rx="1.90217" fill="#044956"/>
<rect x="113.652" y="309.88" width="6.08696" height="6.08696" rx="3.04348" fill="#032F37"/>
<rect x="178.326" y="217.435" width="19.0217" height="29.6739" fill="#007CC1"/>
<path d="M182.131 244.16V221.905L196.967 233.033L182.131 244.16ZM187.076 208.304C183.829 208.304 180.613 208.944 177.613 210.187C174.613 211.429 171.887 213.251 169.591 215.547C164.953 220.185 162.348 226.474 162.348 233.033C162.348 239.591 164.953 245.881 169.591 250.518C171.887 252.814 174.613 254.636 177.613 255.879C180.613 257.121 183.829 257.761 187.076 257.761C193.635 257.761 199.924 255.156 204.562 250.518C209.199 245.881 211.804 239.591 211.804 233.033C211.804 229.785 211.165 226.57 209.922 223.569C208.679 220.569 206.858 217.843 204.562 215.547C202.265 213.251 199.539 211.429 196.539 210.187C193.539 208.944 190.324 208.304 187.076 208.304Z" fill="white"/>
<mask id="mask1" mask-type="alpha" maskUnits="userSpaceOnUse" x="211" y="51" width="315" height="475">
<rect x="211" y="51" width="315" height="475" rx="2" fill="#B8E6FF"/>
</mask>
<g mask="url(#mask1)">
<path d="M453.146 162.014L354.607 178.701C352.172 179.116 349.671 178.613 347.585 177.29C345.5 175.968 343.98 173.918 343.319 171.539C336.2 145.844 321.315 112.324 335.766 95.4966C336.503 88.4176 339.941 81.8952 345.365 77.2873C350.789 72.6794 357.782 70.341 364.887 70.7589C382.49 43.204 411.81 47.3412 431.628 64.5505C451.572 71.4322 459.091 83.6581 456.461 100.249C465.077 107.791 469.595 116.286 470.547 125.61C470.999 130.798 470.338 136.023 468.61 140.936C466.883 145.85 464.127 150.338 460.527 154.101L453.146 162.014Z" fill="#2F2E41"/>
<path d="M437.826 239.591L361.436 235.097C368.922 217.914 371.913 201.368 368.925 185.668H425.843C425.714 197.723 431.712 218.575 437.826 239.591Z" fill="#9F616A"/>
<path d="M398.885 203.851C430.215 203.851 455.613 178.453 455.613 147.123C455.613 115.794 430.215 90.3956 398.885 90.3956C367.555 90.3956 342.157 115.794 342.157 147.123C342.157 178.453 367.555 203.851 398.885 203.851Z" fill="#9F616A"/>
<path d="M462.82 120.024C439.796 116.014 417.16 115.464 395.155 120.55C381.137 125.138 364.304 124.715 345.583 120.935V82.6798L446.65 84.5015L462.82 120.024Z" fill="#2F2E41"/>
<path d="M436.638 192.64C411.821 202.963 385.8 202.544 358.714 192.64C366.595 179.188 354.814 168.652 348.766 155.071L449.902 152.066C442.168 163.863 430.756 177.802 436.638 192.64Z" fill="white"/>
<path d="M341.803 147.324L340.808 148.518L350.756 156.807L351.75 155.614L341.803 147.324Z" fill="white"/>
<path d="M451.735 164.085L434.322 191.439L435.632 192.273L453.045 164.919L451.735 164.085Z" fill="white"/>
<path d="M343.616 164.084L342.306 164.917L359.715 192.274L361.025 191.44L343.616 164.084Z" fill="white"/>
<path d="M291.037 405.851L247.6 378.889L284.644 270.394C288.776 259.198 296.69 249.799 307.017 243.82L319.496 236.595L320.581 346.047L291.037 405.851Z" fill="#007CC1"/>
<path d="M478.793 458.544L472.366 403.5C472.023 374.446 476.966 346.356 488.752 320.474L494.743 239.59L428.838 212.629C428.636 213.972 428.464 215.315 428.272 216.657L397.384 232.101L367.26 225.255L367.427 215.625L307.514 242.586C327.327 334.7 316.52 430.357 282.448 543.343C282.11 531.533 283.173 555.64 282.448 543.343C322.141 557.957 475.081 572.557 511.246 551.633C496.844 521.352 485.44 489.842 478.793 458.544Z" fill="#007CC1"/>
<path d="M580.12 392.369L539.679 378.89L474.99 303.583L494.743 239.591L584.613 365.41L580.12 392.369Z" fill="#007CC1"/>
<path d="M453.376 450.671C454.038 453.575 455.824 456.098 458.343 457.686C460.862 459.275 463.909 459.8 466.814 459.147L501.144 451.372L496.182 429.46L461.852 437.233C458.946 437.891 456.421 439.677 454.832 442.197C453.242 444.717 452.719 447.765 453.376 450.671V450.671Z" fill="#FAFAFA"/>
<path d="M484.258 425.322L503.73 461.271C536.482 452.136 564.866 423.339 592.103 389.374L584.613 365.409L538.18 377.392L484.258 425.322Z" fill="#007CC1"/>
<path d="M230.375 312.562L267.755 319.236L353.198 440.724L307.807 430.044L230.375 312.562Z" fill="#FAFAFA"/>
<path d="M223.744 311.074C223.175 311.083 222.618 311.244 222.132 311.542C221.646 311.839 221.249 312.262 220.983 312.765C220.716 313.269 220.589 313.834 220.616 314.404C220.643 314.973 220.823 315.524 221.136 316L301.002 437.176C301.447 437.854 302.136 438.335 302.925 438.52L340.084 447.263C340.711 447.41 341.367 447.364 341.967 447.129C342.566 446.895 343.08 446.484 343.441 445.951C343.801 445.418 343.991 444.787 343.985 444.144C343.979 443.5 343.778 442.874 343.408 442.347L255.72 317.666C255.482 317.326 255.179 317.037 254.83 316.814C254.48 316.591 254.09 316.44 253.681 316.368L224.343 311.128C224.146 311.093 223.945 311.075 223.744 311.074Z" fill="#3F3D56"/>
<path d="M273.565 397.714L275.785 420.072L310.811 416.595C313.776 416.301 316.503 414.841 318.391 412.536C320.279 410.232 321.175 407.271 320.881 404.307C320.586 401.342 319.126 398.615 316.822 396.727C314.517 394.839 311.557 393.943 308.592 394.237L273.565 397.714Z" fill="#FAFAFA"/>
<path d="M243.107 395.124C243.158 402.748 246.22 410.042 251.626 415.418C257.031 420.794 264.343 423.816 271.966 423.825H277.726L281.919 388.882L247.202 376.384L243.107 395.124Z" fill="#007CC1"/>
<path d="M447.135 155.931L446.037 154.834L447.695 153.175L457.602 141.613L458.781 142.622L448.833 154.228L447.135 155.931Z" fill="white"/>
</g>
</g>
</svg>
